<svg xmlns="http://www.w3.org/2000/svg" viewBox="0 0 60.59 60.6"><defs><style>.cls-1{isolation:isolate;}.cls-2,.cls-5{fill:#7bd9c2;}.cls-3{fill:#65a18f;}.cls-4{fill:#ffff90;}.cls-5{opacity:0.5;mix-blend-mode:multiply;}</style></defs><title>Recurso 13</title><g class="cls-1"><g id="Capa_2" data-name="Capa 2"><g id="Layer_1" data-name="Layer 1"><path class="cls-2" d="M59.25,21.42A30.33,30.33,0,0,0,30.3,0a29.84,29.84,0,0,0-9.87,1.65v0a30.29,30.29,0,0,0-3.18,56A30.08,30.08,0,0,0,29,60.57c.42,0,.84,0,1.27,0h.92a30.3,30.3,0,0,0,29.37-30.3A29.9,29.9,0,0,0,59.25,21.42Z"/><path class="cls-3" d="M17.25,57.65A30.32,30.32,0,0,1,5.3,13.17s8.79,1.55,4.43,9.22-5.53,19,1.95,22.89C19.48,49.38,21.58,56,17.25,57.65Z"/><path class="cls-3" d="M45.54,4.13A30.25,30.25,0,0,0,20.43,1.65v0c0,.32-.44,4.89,6.17,9.12a16.19,16.19,0,0,1,3.69,3.31c3.45,4.07,6.93,8.49,12.85,3.22S47.89,7.31,45.54,4.13Z"/><path class="cls-3" d="M60.59,30.29A30.28,30.28,0,0,1,44.38,57.13c1.06-6.8,12.45-9.27,8.1-22.69-3.39-10.46,6-13,6.77-13A29.69,29.69,0,0,1,60.59,30.29Z"/><path class="cls-4" d="M47.2,33.41c-1.73-2.12-7.26-.36-10.64,2.45-2.93,2.44-2.93,5.35-2.05,7L31.22,45.6V40c1.82-.47,3.89-2.31,3.89-6.08,0-4.39-2.1-9.72-4.81-9.73S25.36,29.55,25.36,34c0,3.53,1.9,5.36,3.67,6v6.75L25,41.93c.85-1.6,1-4.08-1.21-6.68-2.81-3.38-7.84-6.13-9.94-4.4s-.35,7.27,2.47,10.65c2.5,3,5.46,2.93,7.17,2l5.35,6.24.07.08h0L29,50V60.57c.42,0,.84,0,1.27,0h.92V48.4L36,44.48c1.57.91,4.11,1.08,6.79-1.14C46.19,40.51,48.93,35.5,47.2,33.41Z"/><path class="cls-5" d="M60.59,30.29a30.3,30.3,0,0,1-29.37,30.3H30.3V0a30.33,30.33,0,0,1,29,21.42A29.9,29.9,0,0,1,60.59,30.29Z"/></g></g></g></svg>